<svg width="341" height="282" viewBox="0 0 341 282" fill="none" xmlns="http://www.w3.org/2000/svg">
<rect width="341" height="282" fill="#F5F5F5"/>
<g clip-path="url(#clip0_0_1)">
<rect width="341" height="282" fill="white"/>
<g filter="url(#filter0_i_0_1)">
<path d="M119.117 138.199V74.0391L101.148 69.9375L102.418 62.5156H155.348L154.469 69.9375L137.965 73.6484V134.195C137.965 147.607 140.992 157.568 147.047 164.078C153.167 170.523 161.467 173.746 171.949 173.746C182.105 173.746 189.918 170.719 195.387 164.664C200.855 158.609 203.622 149.365 203.688 136.93L203.98 74.0391L186.109 69.9375L187.086 62.5156H233.766L232.691 69.9375L216.48 73.6484L215.992 133.707C215.862 151.546 211.858 164.827 203.98 173.551C196.103 182.275 183.798 186.637 167.066 186.637C153.134 186.637 141.643 183.219 132.594 176.383C123.609 169.482 119.117 156.754 119.117 138.199Z" fill="#5856D6"/>
</g>
<g filter="url(#filter1_i_0_1)">
<path d="M200.656 129.039L182.883 124.938L183.957 117.516H280.93L276.926 148.961L268.332 147.594L265.012 126.5H219.602V173.57H247.629L251.73 161.852L260.52 160.484L257.883 198.766L249.289 200.133L246.359 182.555H219.602V227.086L242.551 230.895L241.281 239H183.566L184.348 231.773L200.656 227.184V129.039Z" fill="#5856D6"/>
</g>
</g>
<defs>
<filter id="filter0_i_0_1" x="101.148" y="62.5156" width="136.617" height="128.121" filterUnits="userSpaceOnUse" color-interpolation-filters="sRGB">
<feFlood flood-opacity="0" result="BackgroundImageFix"/>
<feBlend mode="normal" in="SourceGraphic" in2="BackgroundImageFix" result="shape"/>
<feColorMatrix in="SourceAlpha" type="matrix" values="0 0 0 0 0 0 0 0 0 0 0 0 0 0 0 0 0 0 127 0" result="hardAlpha"/>
<feOffset dx="5" dy="7"/>
<feGaussianBlur stdDeviation="2"/>
<feComposite in2="hardAlpha" operator="arithmetic" k2="-1" k3="1"/>
<feColorMatrix type="matrix" values="0 0 0 0 0 0 0 0 0 0 0 0 0 0 0 0 0 0 0.25 0"/>
<feBlend mode="normal" in2="shape" result="effect1_innerShadow_0_1"/>
</filter>
<filter id="filter1_i_0_1" x="182.883" y="117.516" width="98.0469" height="125.484" filterUnits="userSpaceOnUse" color-interpolation-filters="sRGB">
<feFlood flood-opacity="0" result="BackgroundImageFix"/>
<feBlend mode="normal" in="SourceGraphic" in2="BackgroundImageFix" result="shape"/>
<feColorMatrix in="SourceAlpha" type="matrix" values="0 0 0 0 0 0 0 0 0 0 0 0 0 0 0 0 0 0 127 0" result="hardAlpha"/>
<feOffset dy="4"/>
<feGaussianBlur stdDeviation="2"/>
<feComposite in2="hardAlpha" operator="arithmetic" k2="-1" k3="1"/>
<feColorMatrix type="matrix" values="0 0 0 0 0 0 0 0 0 0 0 0 0 0 0 0 0 0 0.25 0"/>
<feBlend mode="normal" in2="shape" result="effect1_innerShadow_0_1"/>
</filter>
<clipPath id="clip0_0_1">
<rect width="341" height="282" fill="white"/>
</clipPath>
</defs>
</svg>
