<svg width="185" height="146" viewBox="0 0 185 146" fill="none" xmlns="http://www.w3.org/2000/svg">
<path d="M114.449 16.4218C110.656 16.5755 107.32 17.3275 104.441 18.6776C101.622 19.9671 99.2008 22.0058 97.1776 24.7939C92.7748 30.9151 90.6347 40.9611 90.7573 54.9319C90.7921 58.9064 91.2707 61.9736 92.193 64.1335C92.4408 64.9143 92.748 65.6042 93.1146 66.2032C93.3591 66.6226 93.4833 67.0431 93.487 67.4646C86.8629 67.5227 81.9434 66.241 78.7285 63.6193C75.2707 60.759 73.5135 56.107 73.457 49.6636C73.4009 43.2804 74.5221 37.2181 76.8204 31.4767C79.179 25.7347 82.7781 20.6744 87.6178 16.2959C92.8157 11.5528 99.4379 7.85117 107.485 5.19095C115.591 2.53019 125.155 1.15146 136.175 1.05476C138.283 1.03627 140.391 1.13821 142.501 1.36059L147.202 1.77102C152.808 2.32406 156.454 2.65341 158.141 2.75905C160.733 2.9772 163.655 3.07201 166.906 3.04348C173.47 2.98588 179.004 2.18453 183.507 0.639421C182.979 2.20987 182.425 4.29245 181.846 6.88715C180.566 12.0776 178.133 16.1942 174.546 19.2368C172.454 21.0017 169.665 22.2607 166.178 23.014C158.711 23.0795 150.059 21.9811 140.223 19.7187L132.777 56.5506L159.786 56.3136L156.925 70.0697L129.917 70.3067L115.533 139.991L88.886 140.225L114.449 16.4218Z" fill="url(#paint0_linear_0_1)"/>
<path d="M69.4769 143.817C57.1942 144.06 47.893 141.263 41.5733 135.425C35.2537 129.587 31.9776 120.797 31.7451 109.057C31.6294 103.216 32.3742 96.7264 33.9796 89.5871L51.3688 14.1621C46.0978 15.6518 41.3812 17.7631 37.219 20.4958C33.0568 23.2284 29.5357 26.4002 26.6558 30.011C23.8927 33.4388 21.7985 37.1846 20.3732 41.2484C19.0069 45.2509 18.3655 49.3595 18.4489 53.5741C18.5718 59.7757 20.2842 65.6446 23.5862 71.1809C16.5417 71.3205 11.0286 69.713 7.04703 66.3586C3.12565 63.0029 1.10235 58.1641 0.977133 51.8421C0.897233 47.8081 1.66146 43.8176 3.26981 39.8706C4.93718 35.8621 7.33064 32.02 10.4502 28.3443C13.3915 24.7925 17.0005 21.4985 21.2771 18.4624C25.5538 15.4263 30.2898 12.7726 35.4851 10.5013C46.3538 5.76851 57.7188 3.28467 69.58 3.04974C73.7345 2.96746 77.2025 3.19994 79.9841 3.74718L59.0977 89.6317C57.143 97.3803 56.2211 104.054 56.332 109.654C56.5646 121.395 61.4976 127.17 71.1311 126.979C84.7385 126.709 94.0602 113.816 99.0962 88.2974L115.828 2.49514L141.929 1.97818L125.558 87.7733C122.063 105.912 115.59 119.714 106.14 129.177C96.6901 138.64 84.4691 143.52 69.4769 143.817Z" fill="url(#paint1_linear_0_1)"/>
<defs>
<linearGradient id="paint0_linear_0_1" x1="34.1596" y1="267.949" x2="109.566" y2="2.79465" gradientUnits="userSpaceOnUse">
<stop stop-color="#0D0343"/>
<stop offset="0.26" stop-color="#120366"/>
</linearGradient>
<linearGradient id="paint1_linear_0_1" x1="245.521" y1="276.708" x2="-60.6884" y2="29.7061" gradientUnits="userSpaceOnUse">
<stop stop-color="#91E5FF"/>
<stop offset="0.245085" stop-color="#030353"/>
<stop offset="1" stop-color="#06067F"/>
</linearGradient>
</defs>
</svg>
