<svg width="185" height="145" viewBox="0 0 185 145" fill="none" xmlns="http://www.w3.org/2000/svg">
<path d="M114.449 16.4218C110.656 16.5755 107.32 17.3275 104.441 18.6776C101.622 19.9671 99.2008 22.0058 97.1776 24.7939C92.7748 30.9151 90.6347 40.9611 90.7573 54.9319C90.7921 58.9064 91.2707 61.9736 92.193 64.1335C92.4408 64.9143 92.748 65.6042 93.1146 66.2032C93.3591 66.6226 93.4833 67.0431 93.487 67.4646C86.8629 67.5227 81.9434 66.241 78.7285 63.6193C75.2707 60.759 73.5135 56.107 73.457 49.6636C73.4009 43.2804 74.5221 37.2181 76.8204 31.4767C79.179 25.7347 82.7781 20.6744 87.6178 16.2959C92.8157 11.5528 99.4379 7.85117 107.485 5.19095C115.591 2.53019 125.155 1.15146 136.175 1.05476C138.283 1.03627 140.391 1.13821 142.501 1.36059L147.202 1.77102C152.808 2.32406 156.454 2.65341 158.141 2.75905C160.733 2.9772 163.655 3.07201 166.906 3.04348C173.47 2.98588 179.004 2.18453 183.507 0.639421C182.979 2.20987 182.425 4.29245 181.846 6.88715C180.566 12.0776 178.133 16.1942 174.546 19.2368C172.454 21.0017 169.665 22.2607 166.178 23.014C158.711 23.0795 150.059 21.9811 140.223 19.7187L132.777 56.5506L159.786 56.3136L156.925 70.0697L129.917 70.3067L115.533 139.991L88.886 140.225L114.449 16.4218Z" fill="url(#paint0_linear_0_1)"/>
<path d="M69.3118 143.566C57.0282 143.759 47.7385 140.923 41.4429 135.06C35.1473 129.196 31.9073 120.393 31.7229 108.651C31.6312 102.811 32.4026 96.324 34.0372 89.1913L51.7357 13.8382C46.4586 15.3063 41.7334 17.3982 37.56 20.1138C33.3867 22.8294 29.8526 25.9867 26.9579 29.5856C24.1808 33.0021 22.0713 36.7393 20.6293 40.7972C19.2465 44.794 18.5883 48.8999 18.6545 53.1149C18.7518 59.3169 20.4402 65.1928 23.7195 70.7426C16.6744 70.8533 11.168 69.2232 7.20021 65.8525C3.29262 62.4808 1.28918 57.6337 1.1899 51.3113C1.12655 47.2769 1.90714 43.2896 3.53167 39.3492C5.21547 35.3476 7.62467 31.5154 10.7593 27.8525C13.7151 24.3128 17.3376 21.0336 21.6267 18.0151C25.9157 14.9965 30.6626 12.3623 35.8671 10.1123C46.7552 5.42416 58.1302 2.98696 69.9924 2.80069C74.1471 2.73545 77.6142 2.98215 80.3935 3.54079L59.155 89.3389C57.1685 97.0794 56.2192 103.75 56.3072 109.349C56.4916 121.091 61.4009 126.886 71.0351 126.735C84.6434 126.521 94.0179 113.666 99.1586 88.1687L116.242 2.4358L142.345 2.02591L125.623 87.7531C122.053 105.878 115.523 119.652 106.035 129.077C96.546 138.501 84.3051 143.331 69.3118 143.566Z" fill="url(#paint1_linear_0_1)"/>
<defs>
<linearGradient id="paint0_linear_0_1" x1="144" y1="23" x2="96.6015" y2="18.1373" gradientUnits="userSpaceOnUse">
<stop stop-color="#11C7FF"/>
<stop offset="0.981" stop-color="#FB0505"/>
</linearGradient>
<linearGradient id="paint1_linear_0_1" x1="28.2519" y1="-39.2789" x2="-20.0312" y2="-4.06786" gradientUnits="userSpaceOnUse">
<stop stop-color="#11C7FF"/>
<stop offset="1" stop-color="#FB0505"/>
</linearGradient>
</defs>
</svg>
