<svg width="178" height="178" viewBox="0 0 178 178" fill="none" xmlns="http://www.w3.org/2000/svg">
<path d="M69.9565 142.396C57.6738 142.64 48.3726 139.842 42.0529 134.004C35.7333 128.166 32.4572 119.377 32.2247 107.636C32.109 101.796 32.8538 95.306 34.4592 88.1667L51.8484 12.7417C46.5774 14.2314 41.8608 16.3427 37.6986 19.0754C33.5364 21.8081 30.0153 24.9798 27.1354 28.5906C24.3723 32.0184 22.2781 35.7642 20.8528 39.8281C19.4865 43.8305 18.8451 47.9391 18.9285 52.1537C19.0514 58.3553 20.7638 64.2242 24.0658 69.7605C17.0213 69.9001 11.5082 68.2926 7.52663 64.9382C3.60525 61.5826 1.58195 56.7437 1.45673 50.4217C1.37683 46.3877 2.14106 42.3972 3.74941 38.4502C5.41678 34.4417 7.81024 30.5997 10.9298 26.9239C13.8711 23.3721 17.4801 20.0781 21.7567 17.042C26.0334 14.0059 30.7694 11.3522 35.9647 9.08088C46.8334 4.34812 58.1984 1.86428 70.0596 1.62935C74.2141 1.54706 77.6821 1.77954 80.4637 2.32678L59.5773 88.2113C57.6226 95.9599 56.7007 102.634 56.8116 108.233C57.0442 119.974 61.9772 125.749 71.6107 125.558C85.2181 125.289 94.5398 112.395 99.5758 86.877L116.308 1.07474L142.409 0.55778L126.038 86.3529C122.542 104.492 116.069 118.293 106.62 127.756C97.1697 137.219 84.9487 142.099 69.9565 142.396Z" fill="url(#paint0_linear_0_1)"/>
<path d="M108.443 53.5252C104.649 53.6369 101.305 54.3518 98.4111 55.6699C95.5778 56.928 93.1341 58.9397 91.0802 61.7052C86.6097 67.7772 84.3582 77.7988 84.3258 91.7701C84.3166 95.7447 84.7611 98.8171 85.6594 100.987C85.8984 101.771 86.1979 102.464 86.5579 103.067C86.7978 103.489 86.9172 103.911 86.9162 104.332C80.2919 104.317 75.387 102.981 72.2014 100.324C68.7755 97.425 67.07 92.7538 67.085 86.3102C67.0998 79.9267 68.2882 73.8772 70.6501 68.1616C73.0722 62.4462 76.7273 57.4262 81.6153 53.1016C86.8654 48.4165 93.5283 44.7886 101.604 42.2178C109.74 39.6472 119.318 38.3747 130.338 38.4003C132.446 38.4051 134.554 38.5305 136.661 38.7763L141.357 39.2388C146.956 39.854 150.599 40.2238 152.285 40.3482C154.874 40.5951 157.794 40.7223 161.046 40.7299C167.61 40.7451 173.152 40.0052 177.672 38.5102C177.127 40.0747 176.55 42.151 175.942 44.7391C174.605 49.915 172.126 54.0043 168.506 57.007C166.394 58.7485 163.591 59.9765 160.096 60.6911C152.629 60.6738 143.99 59.4794 134.179 57.108L126.325 93.855L153.335 93.9177L150.322 107.641L123.313 107.578L108.156 177.099L81.5082 177.037L108.443 53.5252Z" fill="url(#paint1_linear_0_1)"/>
<defs>
<linearGradient id="paint0_linear_0_1" x1="118" y1="131" x2="6.99998" y2="-32" gradientUnits="userSpaceOnUse">
<stop stop-color="#EC0EB5"/>
<stop offset="1" stop-color="#000099"/>
</linearGradient>
<linearGradient id="paint1_linear_0_1" x1="199" y1="10" x2="26" y2="201" gradientUnits="userSpaceOnUse">
<stop stop-color="#FF0DAE"/>
<stop offset="1" stop-color="#37248B"/>
</linearGradient>
</defs>
</svg>
